# Alias OBJ Model File
# Exported from SketchUp, (c) 2000-2012 Trimble Navigation Limited
# File units = meters

mtllib Real.mtl

g Mesh1 EnergyPlus_Zone___3182BB Model

usemtl EnergyPlus_Wall_Ext
v 4.08977 0 -4.51794
vt -62.3928 0
vn 0.359997 0 -0.932954
v 3.99648 1.05 -4.55394
vt -58.4558 41.3386
v 4.08977 2.5 -4.51794
vt -62.3928 98.4252
f 1/1/1 2/2/1 3/3/1

v -0.574995 0 -6.31793
vt 134.458 0
f 2/2/1 1/1/1 4/4/1

usemtl EnergyPlus_Floor_Ext
vt 160.818 62.4099
vn 0 -1 -0
vt 62.3928 -108.068
v -0.230189 0 6.6775
vt 471.539 -344.288
v -4.89496 0 4.87752
vt 569.964 -173.811
v -3.45497 0 1.1457
vt 433.582 -95.0704
v -4.38792 0 0.785704
vt 453.267 -60.9749
v -5.10792 0 2.65161
vt 521.458 -100.345
v -8.83973 0 1.21162
vt 600.198 36.0369
v -5.59976 0 -7.18496
vt 293.339 213.202
v -1.84929 0 -5.73777
vt 214.205 76.1384
v -1.02829 0 -5.42097
vt 196.882 46.1344
v -0.934992 0 -5.38497
vt 194.914 42.7249
f 4/5/2 1/6/2 5/7/2 6/8/2 7/9/2 8/10/2 9/11/2 10/12/2 11/13/2 12/14/2 13/15/2 14/16/2 

usemtl EnergyPlus_Wall_Ext
v -0.230189 2.5 6.6775
vt -580.508 98.4252
vn 0.932954 0 0.359997
vt -580.508 0
vt -108.068 0
vt -108.068 98.4252
f 15/17/3 5/18/3 1/19/3 3/20/3 

vt 62.3928 98.4252
vn -0.359997 0 0.932954
v -0.323484 2.05 6.6415
vt 58.4558 80.7087
vt 62.3928 0
f 15/21/4 16/22/4 5/23/4

v -4.89496 2.5 4.87752
vt -134.458 98.4252
f 16/22/4 15/21/4 17/24/4

usemtl EnergyPlus_Roof_Ext
v -8.83973 2.5 1.21162
vt -600.198 36.0369
vn 0 1 -0
v -5.10792 2.5 2.65161
vt -521.458 -100.345
v -4.38792 2.5 0.785704
vt -453.267 -60.9749
v -3.45497 2.5 1.1457
vt -433.582 -95.0704
vt -569.964 -173.811
vt -471.539 -344.288
vt -62.3928 -108.068
v -0.574995 2.5 -6.31793
vt -160.818 62.4099
v -0.934992 2.5 -5.38497
vt -194.914 42.7249
v -5.59976 2.5 -7.18496
vt -293.339 213.202
f 18/25/5 19/26/5 20/27/5 21/28/5 17/29/5 15/30/5 3/31/5 22/32/5 23/33/5 24/34/5 

usemtl EnergyPlus_Wall_Ext
v -6.88053 2.05 1.96762
vt -248.631 80.7087
vt -173.828 98.4252
vt -331.308 98.4252
f 25/35/4 19/36/4 18/37/4

vt -173.828 0
f 19/36/4 25/35/4 9/38/4

v -6.88053 1.05 1.96762
vt -248.631 41.3386
f 26/39/4 9/38/4 25/35/4

vt -331.308 0
f 9/38/4 26/39/4 10/40/4

v -8.74644 1.05 1.24762
vt -327.371 41.3386
f 10/40/4 26/39/4 27/41/4

usemtl EnergyPlus_Window_Ext
v -8.74644 2.05 1.24762
vt -327.371 80.7087
f 28/42/4 27/41/4 26/39/4 25/35/4 

usemtl EnergyPlus_Wall_Ext
f 28/42/4 18/37/4 27/41/4

f 25/35/4 18/37/4 28/42/4

f 10/40/4 27/41/4 18/37/4

vt 147.438 98.4252
vn -0.932954 0 -0.359997
vt 147.438 0
vt 501.768 0
vt 501.768 98.4252
f 24/43/6 11/44/6 10/45/6 18/46/6 

vt 331.308 98.4252
vn 0.359997 7.61882e-015 -0.932954
v -5.50646 2.05 -7.14896
vt 327.371 80.7087
vt 331.308 1.1233e-012
f 24/47/7 29/48/7 11/49/7

v -3.64056 2.05 -6.42896
vt 248.631 80.7087
f 24/47/7 30/50/7 29/48/7

v -1.84929 2 -5.73777
vt 173.04 78.7402
f 24/47/7 31/51/7 30/50/7

v -1.02829 2 -5.42097
vt 138.395 78.7402
f 24/47/7 32/52/7 31/51/7

vt 134.458 98.4252
f 23/53/7 32/52/7 24/47/7

vt 138.395 1.1233e-012
f 23/53/7 13/54/7 32/52/7

vt 134.458 1.1233e-012
f 13/54/7 23/53/7 14/55/7

vt 108.068 98.4252
vt 108.068 0
f 22/56/6 4/57/6 14/44/6 23/43/6 

v 2.13057 2.05 -5.27394
vt 20.2843 80.7087
f 22/53/1 33/58/1 4/4/1

v 3.99648 2.05 -4.55394
vt -58.4558 80.7087
f 22/53/1 34/59/1 33/58/1

f 3/3/1 34/59/1 22/53/1

f 34/59/1 3/3/1 2/2/1

usemtl EnergyPlus_Window_Ext
vn 0.359997 3.66731e-017 -0.932954
v 2.13057 1.05 -5.27394
vt 20.2843 41.3386
f 34/59/8 2/2/8 35/60/8 33/58/8 

usemtl EnergyPlus_Wall_Ext
f 2/2/1 4/4/1 35/60/1

f 35/60/1 4/4/1 33/58/1

usemtl EnergyPlus_Door_Ext
vt 138.395 0
vt 173.04 0
f 13/61/1 12/62/1 31/51/1 32/52/1 

usemtl EnergyPlus_Wall_Ext
vt 173.04 1.1233e-012
f 11/49/7 31/51/7 12/63/7

v -3.64056 1.05 -6.42896
vt 248.631 41.3386
f 31/51/7 11/49/7 36/64/7

v -5.50646 1.05 -7.14896
vt 327.371 41.3386
f 36/64/7 11/49/7 37/65/7

f 37/65/7 11/49/7 29/48/7

usemtl EnergyPlus_Window_Ext
vn 0.359997 3.17598e-017 -0.932954
f 30/50/9 36/64/9 37/65/9 29/48/9 

usemtl EnergyPlus_Wall_Ext
f 30/50/7 31/51/7 36/64/7

vt -501.768 98.4252
vt -501.768 0
vt -423.028 0
vt -423.028 98.4252
f 19/66/3 9/67/3 8/68/3 20/69/3 

vt -134.458 0
f 20/36/4 8/38/4 7/70/4 21/24/4 

vt 423.028 98.4252
vt 423.028 0
vt 580.508 0
vt 580.508 98.4252
f 21/71/6 7/72/6 6/73/6 17/74/6 

v -2.18939 1.05 5.92151
vt -20.2843 41.3386
f 6/70/4 38/75/4 17/24/4

v -0.323484 1.05 6.6415
vt 58.4558 41.3386
f 6/70/4 39/76/4 38/75/4

f 5/23/4 39/76/4 6/70/4

f 39/76/4 5/23/4 16/22/4

usemtl EnergyPlus_Window_Ext
v -2.18939 2.05 5.92151
vt -20.2843 80.7087
f 40/77/4 38/75/4 39/76/4 16/22/4 

usemtl EnergyPlus_Wall_Ext
f 40/77/4 17/24/4 38/75/4

f 16/22/4 17/24/4 40/77/4

g Mesh2 Steve1 Model

usemtl Steve_Glasses_Black
v 0.453697 0.0247506 -0.346969
vt 0.722751 0.974434
vn -0.47013 -1.27852e-015 -0.882597
v 0.453697 0.0411133 -0.346969
vt 0.722751 1.61863
v 0.44569 0.0550342 -0.342704
vt 1.07994 2.1667
v 0.4427 0.0753637 -0.341112
vt 1.21331 2.96708
v 0.453697 0.0574759 -0.346969
vt 0.722751 2.26283
v 0.457708 0.0497387 -0.349106
vt 0.543829 1.95822
v 0.463282 0.0464354 -0.352075
vt 0.295208 1.82817
v 0.480864 0.0458675 -0.36144
vt -0.489075 1.80581
v 0.502245 0.0458675 -0.372829
vt -1.44283 1.80581
v 0.517033 0.0461703 -0.380706
vt -2.10248 1.81773
v 0.531115 0.0488314 -0.388207
vt -2.73063 1.92249
v 0.541001 0.0512532 -0.393473
vt -3.1716 2.01784
v 0.545613 0.055338 -0.39593
vt -3.37733 2.17866
v 0.549855 0.0453616 -0.398189
vt -3.56656 1.78589
v 0.550651 0.0299299 -0.398614
vt -3.60208 1.17834
v 0.540029 0.0255418 -0.392955
vt -3.12824 1.00558
v 0.529465 0.0226543 -0.387328
vt -2.657 0.891902
v 0.525275 0.0242323 -0.385096
vt -2.47011 0.954026
v 0.521144 0.0309645 -0.382896
vt -2.28586 1.21907
v 0.516653 0.0331738 -0.380504
vt -2.08551 1.30606
v 0.5073 0.0331738 -0.375522
vt -1.66828 1.30606
v 0.498948 0.0323665 -0.371073
vt -1.29577 1.27427
v 0.493104 0.0297941 -0.36796
vt -1.03505 1.173
v 0.488393 0.0259414 -0.365451
vt -0.824937 1.02131
v 0.482898 0.0188188 -0.362524
vt -0.57982 0.740899
v 0.47305 0.0196362 -0.357278
vt -0.140526 0.77308
v 0.463108 0.0222635 -0.351982
vt 0.302953 0.876517
f 41/78/10 42/79/10 43/80/10 44/81/10 45/82/10 46/83/10 47/84/10 48/85/10 49/86/10 50/87/10 51/88/10 52/89/10 53/90/10 54/91/10 55/92/10 56/93/10 57/94/10 58/95/10 59/96/10 60/97/10 61/98/10 62/99/10 63/100/10 64/101/10 65/102/10 66/103/10 67/104/10 

usemtl Steve_Edges
v 0.447289 0.0371907 -0.343556
vt 1.0086 1.4642
vn -0.47013 -1.33576e-015 -0.882597
v 0.453697 0.0163313 -0.346969
vt 0.722751 0.642964
v 0.450024 0.0180467 -0.345013
vt 0.886622 0.7105
v 0.44584 0.0245529 -0.342784
vt 1.07325 0.966651
f 68/105/11 43/80/11 42/79/11 41/78/11 69/106/11 70/107/11 71/108/11 

vn -0.47013 6.84208e-015 -0.882597
v 0.55172 0.00921875 -0.399183
vt -3.64977 0.362943
v 0.549519 0.0049436 -0.39801
vt -3.55155 0.19463
v 0.543156 0.00268606 -0.394621
vt -3.26772 0.10575
v 0.528739 0.00158932 -0.386941
vt -2.62463 0.0625716
v 0.4699 4.00741e-032 -0.3556
vt 0 0
v 0.463144 0.00129929 -0.352001
vt 0.301384 0.051153
v 0.456201 0.00311514 -0.348303
vt 0.611062 0.122643
v 0.453697 0.0100387 -0.346969
vt 0.722751 0.395226
f 65/102/12 64/101/12 63/100/12 62/99/12 61/98/12 60/97/12 59/96/12 58/95/12 57/94/12 56/93/12 55/92/12 72/109/12 73/110/12 74/111/12 75/112/12 76/113/12 77/114/12 78/115/12 79/116/12 69/106/12 41/78/12 67/104/12 66/103/12 

usemtl Steve_Shoes2
v 0.440024 0.0849357 -0.339686
vt 1.33269 3.34392
vn -0.47013 -6.17846e-015 -0.882597
v 0.439557 0.0972183 -0.339437
vt 1.35353 3.82749
v 0.454369 0.0925767 -0.347327
vt 0.692799 3.64475
v 0.51082 0.0975751 -0.377397
vt -1.82534 3.84154
v 0.523294 0.113787 -0.384041
vt -2.38175 4.47979
v 0.523357 0.112141 -0.384075
vt -2.38454 4.41501
v 0.525529 0.0982653 -0.385232
vt -2.48146 3.86871
v 0.528171 0.0882524 -0.386639
vt -2.59932 3.47451
v 0.540942 0.0647083 -0.393442
vt -3.16899 2.54757
f 80/117/13 81/118/13 82/119/13 83/120/13 84/121/13 85/122/13 86/123/13 87/124/13 88/125/13 53/90/13 52/89/13 51/88/13 50/87/13 49/86/13 48/85/13 47/84/13 46/83/13 45/82/13 44/81/13 

usemtl Steve_Pants
v 0.541128 0.357208 -0.393541
vt -3.17728 14.0633
vn -0.47013 5.66402e-016 -0.882597
v 0.534013 0.262357 -0.389751
vt -2.85989 10.329
v 0.522747 0.222194 -0.38375
vt -2.35735 8.74779
v 0.520536 0.20214 -0.382572
vt -2.25872 7.95826
v 0.526251 0.189931 -0.385616
vt -2.51365 7.47759
v 0.520638 0.159373 -0.382626
vt -2.26327 6.27452
v 0.526966 0.146142 -0.385997
vt -2.54557 5.75362
v 0.526966 0.118559 -0.385997
vt -2.54557 4.6677
v 0.434517 0.101053 -0.336753
vt 1.57833 3.97848
v 0.422956 0.162166 -0.330595
vt 2.09403 6.38447
v 0.428173 0.168875 -0.333373
vt 1.86133 6.64863
v 0.428609 0.186979 -0.333605
vt 1.84188 7.3614
v 0.424265 0.198583 -0.331292
vt 2.03563 7.81824
v 0.426458 0.203879 -0.33246
vt 1.93782 8.02674
v 0.425847 0.211763 -0.332135
vt 1.96507 8.33715
v 0.415634 0.225647 -0.326694
vt 2.42064 8.88373
v 0.420732 0.238876 -0.32941
vt 2.19324 9.40457
v 0.417851 0.262109 -0.327875
vt 2.32177 10.3193
v 0.414957 0.301556 -0.326334
vt 2.45084 11.8723
v 0.414957 0.355767 -0.326334
vt 2.45084 14.0066
v 0.421307 0.378491 -0.329716
vt 2.16759 14.9012
v 0.424061 0.391574 -0.331183
vt 2.04474 15.4163
v 0.412987 0.420499 -0.325284
vt 2.53874 16.5551
v 0.412698 0.430986 -0.32513
vt 2.55163 16.9679
v 0.415914 0.442622 -0.326844
vt 2.40814 17.4261
v 0.417104 0.456687 -0.327477
vt 2.35507 17.9798
v 0.414277 0.475913 -0.325972
vt 2.48117 18.7368
v 0.409565 0.531161 -0.323461
vt 2.69138 20.9118
v 0.407172 0.589612 -0.322187
vt 2.79811 23.2131
v 0.394659 0.683596 -0.315522
vt 3.35628 26.9132
v 0.384238 0.676488 -0.309971
vt 3.82113 26.6334
v 0.381361 0.659602 -0.308438
vt 3.94947 25.9686
v 0.373358 0.63767 -0.304175
vt 4.30647 25.1051
v 0.370441 0.599164 -0.302621
vt 4.43658 23.5891
v 0.359447 0.534527 -0.296765
vt 4.927 21.0444
v 0.355791 0.515794 -0.294818
vt 5.09008 20.3069
v 0.352106 0.476804 -0.292855
vt 5.25443 18.7718
v 0.34743 0.46695 -0.290364
vt 5.46303 18.3839
v 0.3463 0.454827 -0.289762
vt 5.51343 17.9066
v 0.334493 0.431393 -0.283473
vt 6.0401 16.984
v 0.333519 0.374378 -0.282955
vt 6.08354 14.7393
v 0.326259 0.361331 -0.279087
vt 6.40741 14.2256
v 0.323077 0.295401 -0.277392
vt 6.54935 11.63
v 0.325034 0.279777 -0.278435
vt 6.46203 11.0149
v 0.319652 0.26505 -0.275568
vt 6.70213 10.435
v 0.325054 0.254432 -0.278445
vt 6.46118 10.017
v 0.321729 0.189659 -0.276674
vt 6.60948 7.46688
v 0.316347 0.12441 -0.273807
vt 6.84955 4.89804
v 0.310327 0.105946 -0.270601
vt 7.11809 4.17109
v 0.309967 0.0888348 -0.270409
vt 7.13415 3.49743
v 0.267741 0.0857378 -0.247916
vt 9.01773 3.3755
v 0.251415 0.09734 -0.23922
vt 9.74597 3.83228
v 0.225446 0.0985974 -0.225387
vt 10.9044 3.88179
v 0.219479 0.0988864 -0.222209
vt 11.1706 3.89316
v 0.225241 0.126918 -0.225278
vt 10.9135 4.99676
v 0.216718 0.210455 -0.220738
vt 11.2937 8.28563
v 0.214117 0.249259 -0.219353
vt 11.4097 9.81333
v 0.21116 0.328059 -0.217778
vt 11.5416 12.9157
v 0.214921 0.355968 -0.219781
vt 11.3739 14.0145
v 0.208283 0.373857 -0.216245
vt 11.67 14.7188
v 0.208653 0.38011 -0.216442
vt 11.6535 14.965
v 0.216597 0.395549 -0.220674
vt 11.2991 15.5728
v 0.216147 0.421585 -0.220434
vt 11.3192 16.5978
v 0.222282 0.433487 -0.223702
vt 11.0455 17.0664
v 0.21743 0.44358 -0.221118
vt 11.2619 17.4638
v 0.216468 0.468898 -0.220605
vt 11.3049 18.4606
v 0.220314 0.497297 -0.222654
vt 11.1333 19.5786
v 0.218833 0.517875 -0.221865
vt 11.1994 20.3888
v 0.221609 0.547824 -0.223344
vt 11.0755 21.5679
v 0.212464 0.564858 -0.218472
vt 11.4835 22.2385
v 0.210674 0.585004 -0.217519
vt 11.5633 23.0316
v 0.212478 0.59997 -0.21848
vt 11.4828 23.6209
v 0.220151 0.708492 -0.222567
vt 11.1406 27.8934
v 0.219433 0.738759 -0.222184
vt 11.1726 29.085
v 0.223003 0.760393 -0.224086
vt 11.0134 29.9367
v 0.21788 0.779065 -0.221357
vt 11.2419 30.6719
v 0.223236 0.787523 -0.22421
vt 11.003 31.0048
v 0.217313 0.809283 -0.221055
vt 11.2672 31.8615
v 0.218489 0.852913 -0.221681
vt 11.2147 33.5793
v 0.238909 0.847709 -0.232558
vt 10.3039 33.3744
v 0.257131 0.845737 -0.242265
vt 9.49102 33.2967
v 0.275711 0.844053 -0.252162
vt 8.6622 33.2304
v 0.291328 0.845828 -0.260481
vt 7.96558 33.3003
v 0.303127 0.845828 -0.266766
vt 7.43926 33.3003
v 0.358564 0.830764 -0.296295
vt 4.96638 32.7072
v 0.361476 0.829972 -0.297846
vt 4.83648 32.6761
v 0.38051 0.828098 -0.307985
vt 3.98742 32.6023
v 0.424654 0.834575 -0.331499
vt 2.0183 32.8573
v 0.472793 0.839106 -0.357141
vt -0.129052 33.0357
v 0.502527 0.84461 -0.372979
vt -1.45538 33.2524
v 0.53658 0.736726 -0.391118
vt -2.9744 29.0049
v 0.539353 0.73795 -0.392595
vt -3.09808 29.0531
v 0.538562 0.740445 -0.392174
vt -3.06283 29.1514
v 0.543764 0.740231 -0.394945
vt -3.29484 29.1429
v 0.548391 0.741523 -0.39741
vt -3.50125 29.1938
v 0.553041 0.744264 -0.399887
vt -3.7087 29.3017
v 0.554966 0.747682 -0.400912
vt -3.79453 29.4363
v 0.55544 0.746183 -0.401164
vt -3.81569 29.3773
v 0.55854 0.747682 -0.402815
vt -3.95396 29.4363
v 0.559692 0.748238 -0.403429
vt -4.00534 29.4582
v 0.55929 0.733543 -0.403215
vt -3.98742 28.8796
v 0.556675 0.712014 -0.401822
vt -3.8708 28.0321
v 0.557609 0.66806 -0.40232
vt -3.91246 26.3016
v 0.550365 0.656054 -0.398461
vt -3.5893 25.8289
v 0.538086 0.494237 -0.39192
vt -3.04157 19.4581
v 0.542778 0.453419 -0.394419
vt -3.25085 17.8511
v 0.542275 0.423687 -0.394152
vt -3.22845 16.6806
v 0.537762 0.386738 -0.391748
vt -3.02714 15.2259
v 0.534017 0.365591 -0.389753
vt -2.86009 14.3933
f 89/126/14 90/127/14 91/128/14 92/129/14 93/130/14 94/131/14 95/132/14 96/133/14 84/121/14 83/120/14 82/119/14 81/118/14 97/134/14 98/135/14 99/136/14 100/137/14 101/138/14 102/139/14 103/140/14 104/141/14 105/142/14 106/143/14 107/144/14 108/145/14 109/146/14 110/147/14 111/148/14 112/149/14 113/150/14 114/151/14 115/152/14 116/153/14 117/154/14 118/155/14 119/156/14 120/157/14 121/158/14 122/159/14 123/160/14 124/161/14 125/162/14 126/163/14 127/164/14 128/165/14 129/166/14 130/167/14 131/168/14 132/169/14 133/170/14 134/171/14 135/172/14 136/173/14 137/174/14 138/175/14 139/176/14 140/177/14 141/178/14 142/179/14 143/180/14 144/181/14 145/182/14 146/183/14 147/184/14 148/185/14 149/186/14 150/187/14 151/188/14 152/189/14 153/190/14 154/191/14 155/192/14 156/193/14 157/194/14 158/195/14 159/196/14 160/197/14 161/198/14 162/199/14 163/200/14 164/201/14 165/202/14 166/203/14 167/204/14 168/205/14 169/206/14 170/207/14 171/208/14 172/209/14 173/210/14 174/211/14 175/212/14 176/213/14 177/214/14 178/215/14 179/216/14 180/217/14 181/218/14 182/219/14 183/220/14 184/221/14 185/222/14 186/223/14 187/224/14 188/225/14 189/226/14 190/227/14 191/228/14 192/229/14 193/230/14 194/231/14 195/232/14 196/233/14 197/234/14 

usemtl Steve_Shoes2
vn -0.47013 -7.52069e-015 -0.882597
v 0.308695 0.0809127 -0.269732
vt 7.19088 3.18554
v 0.301375 0.072862 -0.265832
vt 7.51739 2.86858
v 0.294876 0.0637039 -0.26237
vt 7.80733 2.50803
v 0.286906 0.0505186 -0.258125
vt 8.16284 1.98892
v 0.283756 0.042094 -0.256447
vt 8.30336 1.65724
v 0.281534 0.0415039 -0.255264
vt 8.40245 1.63401
v 0.279041 0.0442067 -0.253936
vt 8.51367 1.74042
v 0.274003 0.0464425 -0.251252
vt 8.73839 1.82845
v 0.258523 0.0444398 -0.243006
vt 9.42891 1.7496
v 0.246368 0.0438745 -0.236532
vt 9.9711 1.72734
v 0.232648 0.0445248 -0.229224
vt 10.5831 1.75294
v 0.216921 0.0465667 -0.220847
vt 11.2846 1.83334
v 0.211199 0.0488159 -0.217799
vt 11.5399 1.92189
v 0.203445 0.0521176 -0.213668
vt 11.8858 2.05188
v 0.198016 0.0553789 -0.210776
vt 12.1279 2.18027
v 0.20538 0.0661102 -0.214699
vt 11.7995 2.60276
v 0.219214 0.0836076 -0.222068
vt 11.1824 3.29164
f 141/178/15 140/177/15 139/176/15 138/175/15 198/235/15 199/236/15 200/237/15 201/238/15 202/239/15 203/240/15 204/241/15 205/242/15 206/243/15 207/244/15 208/245/15 209/246/15 210/247/15 211/248/15 212/249/15 213/250/15 214/251/15 

usemtl Steve_Glasses_Black
v 0.192766 0.0447921 -0.20798
vt 12.3621 1.76347
vn -0.47013 -1.06944e-015 -0.882597
v 0.307232 0.0745888 -0.268952
vt 7.25613 2.93657
v 0.307232 0.0564322 -0.268952
vt 7.25613 2.22174
v 0.294342 0.043951 -0.262086
vt 7.83112 1.73036
v 0.287786 0.0332853 -0.258594
vt 8.12359 1.31044
v 0.283659 0.0264006 -0.256395
vt 8.30767 1.0394
v 0.275806 0.0230215 -0.252213
vt 8.65795 0.906357
v 0.260981 0.0197748 -0.244316
vt 9.31925 0.778537
v 0.251932 0.0190403 -0.239495
vt 9.72293 0.749618
v 0.251748 0.0213017 -0.239398
vt 9.73113 0.838648
v 0.249976 0.0264846 -0.238454
vt 9.81016 1.0427
v 0.245505 0.0316667 -0.236072
vt 10.0096 1.24672
v 0.242138 0.0339365 -0.234279
vt 10.1598 1.33608
v 0.233786 0.0342121 -0.22983
vt 10.5324 1.34693
v 0.223993 0.0340199 -0.224613
vt 10.9692 1.33937
v 0.21828 0.0340199 -0.22157
vt 11.224 1.33937
v 0.213954 0.0324263 -0.219266
vt 11.417 1.27663
v 0.211354 0.0304486 -0.217881
vt 11.533 1.19876
v 0.208816 0.0272277 -0.216529
vt 11.6462 1.07196
v 0.207988 0.0225131 -0.216088
vt 11.6831 0.886344
v 0.199697 0.0241067 -0.211672
vt 12.0529 0.949084
v 0.192101 0.0275736 -0.207625
vt 12.3918 1.08557
f 215/252/16 212/249/16 211/248/16 210/247/16 209/246/16 208/245/16 207/244/16 206/243/16 205/242/16 204/241/16 203/240/16 202/239/16 201/238/16 200/237/16 199/236/16 198/235/16 216/253/16 217/254/16 218/255/16 219/256/16 220/257/16 221/258/16 222/259/16 223/260/16 224/261/16 225/262/16 226/263/16 227/264/16 228/265/16 229/266/16 230/267/16 231/268/16 232/269/16 233/270/16 234/271/16 235/272/16 236/273/16 

usemtl Steve_Edges
v 0.191445 0.00935385 -0.207276
vt 12.421 0.368262
vn -0.47013 -3.01006e-015 -0.882597
v 0.305845 0.0389227 -0.268213
vt 7.318 1.53239
v 0.30382 0.031569 -0.267135
vt 7.40832 1.24287
v 0.292318 0.0261071 -0.261008
vt 7.9214 1.02784
v 0.289192 0.0203593 -0.259343
vt 8.06084 0.801547
v 0.287277 0.0111976 -0.258323
vt 8.14627 0.440851
v 0.284328 0.00561745 -0.256752
vt 8.27781 0.221159
v 0.276866 0.00294625 -0.252777
vt 8.6107 0.115994
v 0.26696 0.00045475 -0.247501
vt 9.05255 0.0179036
v 0.252443 0.00045475 -0.239768
vt 9.70013 0.0179036
v 0.19674 0.00416729 -0.210096
vt 12.1849 0.164066
f 237/274/17 236/273/17 235/272/17 234/271/17 233/270/17 232/269/17 231/268/17 230/267/17 229/266/17 228/265/17 227/264/17 226/263/17 225/262/17 224/261/17 223/260/17 222/259/17 221/258/17 220/257/17 219/256/17 218/255/17 217/254/17 238/275/17 239/276/17 240/277/17 241/278/17 242/279/17 243/280/17 244/281/17 245/282/17 246/283/17 247/284/17 

usemtl Steve_Jacket
v 0.213673 0.977803 -0.219116
vt 11.4295 38.4962
vn -0.47013 3.84652e-018 -0.882597
v 0.220989 1.01012 -0.223013
vt 11.1032 39.7687
v 0.211963 1.00462 -0.218205
vt 11.5058 39.5518
v 0.202833 0.997014 -0.213342
vt 11.9131 39.2525
v 0.193487 0.98189 -0.208364
vt 12.33 38.6571
v 0.18599 0.967932 -0.20437
vt 12.6644 38.1076
v 0.180931 0.946595 -0.201676
vt 12.89 37.2675
v 0.172816 0.952573 -0.197353
vt 13.252 37.5029
v 0.167624 0.957094 -0.194588
vt 13.4836 37.6809
v 0.15684 0.961606 -0.188843
vt 13.9647 37.8585
v 0.148547 0.96526 -0.184426
vt 14.3346 38.0024
v 0.143219 0.967749 -0.181588
vt 14.5723 38.1004
v 0.124313 0.988625 -0.171517
vt 15.4156 38.9222
v 0.112846 1.00018 -0.165409
vt 15.9272 39.3771
v 0.106882 1.00877 -0.162232
vt 16.1932 39.7152
v 0.0890387 1.03046 -0.152728
vt 16.9891 40.5692
v 0.0855081 1.03654 -0.150847
vt 17.1466 40.8085
v 0.0706496 1.12053 -0.142932
vt 17.8094 44.1155
v 0.0704881 1.12741 -0.142846
vt 17.8166 44.3864
v 0.0744168 1.13646 -0.144939
vt 17.6414 44.7424
v 0.0803847 1.14822 -0.148118
vt 17.3751 45.2056
v 0.087062 1.16476 -0.151675
vt 17.0773 45.8567
v 0.0916649 1.17283 -0.154127
vt 16.872 46.1742
v 0.0960564 1.18459 -0.156466
vt 16.6761 46.6373
v 0.112231 1.22565 -0.165081
vt 15.9546 48.254
v 0.124648 1.25338 -0.171696
vt 15.4007 49.3457
v 0.125202 1.2588 -0.171991
vt 15.376 49.5589
v 0.138899 1.29456 -0.179287
vt 14.765 50.9668
v 0.147528 1.31621 -0.183883
vt 14.3801 51.8194
v 0.152308 1.32661 -0.186429
vt 14.1669 52.2289
v 0.164111 1.33826 -0.192716
vt 13.6404 52.6874
v 0.179455 1.35505 -0.20089
vt 12.9559 53.3486
v 0.199954 1.3775 -0.211809
vt 12.0415 54.2322
v 0.217665 1.39511 -0.221243
vt 11.2515 54.9255
v 0.229746 1.40266 -0.227678
vt 10.7126 55.2228
v 0.254139 1.41673 -0.240671
vt 9.62446 55.7766
v 0.280206 1.42471 -0.254556
vt 8.46168 56.0909
v 0.264481 1.40425 -0.24618
vt 9.16313 55.2855
v 0.253156 1.38212 -0.240148
vt 9.66831 54.4143
v 0.242185 1.35781 -0.234304
vt 10.1577 53.4572
v 0.234721 1.34209 -0.230328
vt 10.4906 52.8384
v 0.23019 1.33347 -0.227914
vt 10.6928 52.4988
v 0.224917 1.32895 -0.225106
vt 10.928 52.321
v 0.231422 1.3253 -0.22857
vt 10.6378 52.1773
v 0.245016 1.3253 -0.235811
vt 10.0314 52.1773
v 0.256997 1.32566 -0.242194
vt 9.49697 52.1913
v 0.268339 1.32255 -0.248235
vt 8.99105 52.0689
v 0.276959 1.32131 -0.252827
vt 8.60652 52.0202
v 0.283878 1.32284 -0.256512
vt 8.29789 52.0802
v 0.291002 1.32461 -0.260307
vt 7.98013 52.1499
v 0.299608 1.32431 -0.264891
vt 7.59623 52.1383
v 0.31144 1.31992 -0.271194
vt 7.06843 51.9654
v 0.322169 1.31349 -0.276909
vt 6.58984 51.7121
v 0.329544 1.30468 -0.280837
vt 6.26086 51.3652
v 0.33792 1.28239 -0.285299
vt 5.88724 50.4879
v 0.353748 1.21093 -0.29373
vt 5.18121 47.6746
v 0.353748 1.15676 -0.29373
vt 5.18121 45.5419
v 0.353748 1.10322 -0.29373
vt 5.18121 43.4339
v 0.355575 1.02493 -0.294703
vt 5.0997 40.3516
v 0.35719 0.975222 -0.295563
vt 5.02764 38.3945
v 0.360426 0.926928 -0.297287
vt 4.88331 36.4932
v 0.362091 0.889273 -0.298174
vt 4.80906 35.0107
v 0.362091 0.863691 -0.298174
vt 4.80906 34.0036
v 0.215076 0.857967 -0.219864
vt 11.3669 33.7782
v 0.219051 0.892815 -0.221981
vt 11.1897 35.1502
v 0.211417 0.898253 -0.217915
vt 11.5302 35.3643
v 0.207099 0.907066 -0.215615
vt 11.7228 35.7113
v 0.207099 0.913943 -0.215615
vt 11.7228 35.982
v 0.209286 0.925637 -0.21678
vt 11.6252 36.4424
v 0.212613 0.937822 -0.218552
vt 11.4768 36.9221
v 0.217398 0.947711 -0.2211
vt 11.2634 37.3115
v 0.213392 0.970136 -0.218966
vt 11.4421 38.1943
f 248/285/18 249/286/18 250/287/18 251/288/18 252/289/18 253/290/18 254/291/18 255/292/18 256/293/18 257/294/18 258/295/18 259/296/18 260/297/18 261/298/18 262/299/18 263/300/18 264/301/18 265/302/18 266/303/18 267/304/18 268/305/18 269/306/18 270/307/18 271/308/18 272/309/18 273/310/18 274/311/18 275/312/18 276/313/18 277/314/18 278/315/18 279/316/18 280/317/18 281/318/18 282/319/18 283/320/18 284/321/18 285/322/18 286/323/18 287/324/18 288/325/18 289/326/18 290/327/18 291/328/18 292/329/18 293/330/18 294/331/18 295/332/18 296/333/18 297/334/18 298/335/18 299/336/18 300/337/18 301/338/18 302/339/18 303/340/18 304/341/18 305/342/18 306/343/18 307/344/18 308/345/18 309/346/18 310/347/18 173/210/18 172/209/18 171/208/18 170/207/18 169/206/18 168/205/18 167/204/18 311/348/18 312/349/18 313/350/18 314/351/18 315/352/18 316/353/18 317/354/18 318/355/18 319/356/18 

vn -0.47013 -6.34453e-015 -0.882597
v 0.205637 0.957981 -0.214836
vt 11.788 37.7158
v 0.203614 0.948081 -0.213758
vt 11.8782 37.326
v 0.192125 0.944251 -0.207638
vt 12.3907 37.1752
f 254/291/19 253/290/19 252/289/19 251/288/19 250/287/19 249/286/19 248/285/19 319/356/19 320/357/19 321/358/19 322/359/19 

usemtl Steve_Skin
vn -0.47013 8.383e-015 -0.882597
f 318/355/20 317/354/20 321/358/20 320/357/20 319/356/20 

usemtl Steve_Jacket2
v 0.30137 1.37453 -0.26583
vt 7.51763 54.1154
vn -0.47013 -1.62754e-015 -0.882597
v 0.308915 1.37122 -0.269849
vt 7.18106 53.9851
v 0.321013 1.32527 -0.276293
vt 6.64143 52.1759
v 0.290868 1.43673 -0.260235
vt 7.98611 56.5641
v 0.293226 1.44415 -0.261492
vt 7.88089 56.8562
v 0.298871 1.45554 -0.264498
vt 7.62912 57.3047
v 0.301264 1.45308 -0.265773
vt 7.52237 57.2079
v 0.308502 1.45134 -0.269629
vt 7.19947 57.1395
v 0.309337 1.45012 -0.270073
vt 7.16225 57.0912
v 0.302529 1.43984 -0.266447
vt 7.46592 56.6864
v 0.298113 1.42354 -0.264095
vt 7.6629 56.0451
v 0.295092 1.40376 -0.262485
vt 7.79769 55.266
v 0.292225 1.38586 -0.260958
vt 7.92557 54.5615
v 0.294573 1.37879 -0.262209
vt 7.8208 54.2832
f 323/360/21 324/361/21 325/362/21 301/338/21 300/337/21 299/336/21 298/335/21 297/334/21 296/333/21 295/332/21 294/331/21 293/330/21 292/329/21 291/328/21 290/327/21 289/326/21 288/325/21 287/324/21 286/323/21 285/322/21 284/321/21 326/363/21 327/364/21 328/365/21 329/366/21 330/367/21 331/368/21 332/369/21 333/370/21 334/371/21 335/372/21 336/373/21 

usemtl Steve_Shirt
v 0.30935 1.3899 -0.270081
vt 7.16165 54.7206
vn -0.47013 -2.91212e-014 -0.882597
v 0.312589 1.39004 -0.271806
vt 7.01717 54.726
v 0.319884 1.37619 -0.275691
vt 6.69179 54.1807
v 0.320876 1.3598 -0.27622
vt 6.64752 53.5356
v 0.316876 1.36606 -0.274089
vt 6.82597 53.7819
v 0.311419 1.37013 -0.271182
vt 7.06937 53.9419
v 0.304142 1.39255 -0.267306
vt 7.394 54.8247
f 337/374/22 338/375/22 339/376/22 340/377/22 341/378/22 342/379/22 324/361/22 323/360/22 336/373/22 335/372/22 343/380/22 

v 0.326033 1.38953 -0.278967
vt 6.41749 54.7057
vn -0.47013 1.76542e-015 -0.882597
v 0.321939 1.43159 -0.276786
vt 6.60012 56.3619
v 0.311789 1.42342 -0.271379
vt 7.05287 56.04
v 0.310965 1.41444 -0.270941
vt 7.08963 55.6865
v 0.313308 1.40257 -0.272189
vt 6.98511 55.2194
f 344/381/23 338/375/23 337/374/23 343/380/23 335/372/23 334/371/23 333/370/23 332/369/23 331/368/23 345/382/23 346/383/23 347/384/23 348/385/23 

v 0.367265 1.28616 -0.30093
vt 4.57824 50.6362
vn -0.47013 5.66554e-016 -0.882597
v 0.332775 1.38359 -0.282558
vt 6.11674 54.4721
v 0.342743 1.37656 -0.287867
vt 5.67212 54.1954
v 0.358176 1.35517 -0.296088
vt 4.98368 53.3531
v 0.368691 1.31559 -0.301689
vt 4.51464 51.795
v 0.370888 1.29726 -0.30286
vt 4.41663 51.0734
f 349/386/24 303/340/24 302/339/24 301/338/24 325/362/24 324/361/24 342/379/24 341/378/24 340/377/24 339/376/24 338/375/24 344/381/24 350/387/24 351/388/24 352/389/24 353/390/24 354/391/24 

usemtl Steve_Jacket
v 0.549309 0.976179 -0.397899
vt -3.54221 38.4323
vn -0.47013 5.74571e-017 -0.882597
v 0.494303 0.953726 -0.368599
vt -1.08853 37.5483
v 0.490253 0.952073 -0.366441
vt -0.907884 37.4832
v 0.471077 0.944245 -0.356227
vt -0.0525205 37.175
v 0.493136 0.87436 -0.367977
vt -1.03651 34.4236
v 0.38152 1.31508 -0.308523
vt 3.94237 51.775
v 0.386765 1.32124 -0.311317
vt 3.70841 52.0175
v 0.392558 1.32505 -0.314402
vt 3.45002 52.1671
v 0.399053 1.32799 -0.317862
vt 3.16027 52.283
v 0.418196 1.32891 -0.328059
vt 2.30638 52.3193
v 0.425335 1.33014 -0.331862
vt 1.98792 52.3678
v 0.430711 1.33241 -0.334725
vt 1.74811 52.4572
v 0.437512 1.33616 -0.338348
vt 1.44472 52.6047
v 0.448329 1.34132 -0.34411
vt 0.962218 52.8079
v 0.459684 1.3523 -0.350158
vt 0.45572 53.2401
v 0.466909 1.36409 -0.354007
vt 0.133437 53.7042
v 0.469136 1.37425 -0.355193
vt 0.0340897 54.1044
v 0.479165 1.38201 -0.360535
vt -0.413295 54.4097
v 0.477351 1.39798 -0.359569
vt -0.332349 55.0384
v 0.473878 1.41835 -0.357719
vt -0.177459 55.8407
v 0.471959 1.42342 -0.356697
vt -0.0918566 56.0401
v 0.490035 1.41267 -0.366325
vt -0.898142 55.6168
v 0.512746 1.39986 -0.378423
vt -1.91122 55.1126
v 0.527875 1.38979 -0.386481
vt -2.5861 54.716
v 0.554848 1.36684 -0.400849
vt -3.78928 53.8126
v 0.569026 1.3513 -0.408401
vt -4.42171 53.2009
v 0.579031 1.33829 -0.41373
vt -4.86801 52.6886
v 0.585236 1.32862 -0.417036
vt -5.14482 52.3081
v 0.591834 1.31102 -0.42055
vt -5.43911 51.6151
v 0.603809 1.27986 -0.426929
vt -5.97327 50.3881
v 0.614312 1.25139 -0.432523
vt -6.44178 49.2674
v 0.618169 1.23712 -0.434578
vt -6.61386 48.7053
v 0.622917 1.21401 -0.437107
vt -6.82566 47.7958
v 0.627763 1.19782 -0.439689
vt -7.04183 47.1583
v 0.638484 1.15862 -0.445399
vt -7.52003 45.6149
v 0.65303 1.10915 -0.453148
vt -8.16891 43.6675
v 0.661981 1.08081 -0.457915
vt -8.56819 42.5515
v 0.672557 1.05147 -0.463549
vt -9.03995 41.3965
v 0.675836 1.03932 -0.465295
vt -9.18621 40.918
v 0.679132 1.0243 -0.467051
vt -9.33322 40.327
v 0.682228 1.00682 -0.4687
vt -9.47132 39.6386
v 0.68437 0.988734 -0.469841
vt -9.56687 38.9265
v 0.686995 0.975949 -0.47124
vt -9.68399 38.4232
v 0.691515 0.953304 -0.473647
vt -9.88558 37.5316
v 0.694022 0.940033 -0.474982
vt -9.99742 37.0092
v 0.694022 0.930029 -0.474982
vt -9.99742 36.6153
v 0.690963 0.912881 -0.473353
vt -9.86097 35.9402
v 0.689084 0.898372 -0.472352
vt -9.77717 35.369
v 0.68511 0.884697 -0.470236
vt -9.59991 34.8306
v 0.678154 0.859987 -0.46653
vt -9.2896 33.8578
v 0.670109 0.847637 -0.462245
vt -8.93074 33.3715
v 0.662838 0.835531 -0.458372
vt -8.60642 32.8949
v 0.657824 0.825225 -0.455701
vt -8.38273 32.4892
v 0.650908 0.819751 -0.452017
vt -8.07423 32.2737
v 0.64624 0.817655 -0.449531
vt -7.86603 32.1912
v 0.635073 0.829394 -0.443582
vt -7.36788 32.6533
v 0.623218 0.836376 -0.437267
vt -6.83905 32.9282
v 0.611127 0.839954 -0.430827
vt -6.29973 33.0691
v 0.596457 0.841387 -0.423013
vt -5.64535 33.1255
v 0.581701 0.841387 -0.415153
vt -4.98711 33.1255
v 0.577471 0.84804 -0.412899
vt -4.79842 33.3874
v 0.577035 0.863436 -0.412667
vt -4.77898 33.9935
v 0.577687 0.880667 -0.413015
vt -4.80807 34.6719
v 0.580998 0.888509 -0.414778
vt -4.95575 34.9807
v 0.5715 0.905505 -0.409719
vt -4.53207 35.6498
v 0.570044 0.912693 -0.408943
vt -4.46714 35.9328
v 0.570044 0.925684 -0.408943
vt -4.46714 36.4443
v 0.561081 0.94328 -0.404169
vt -4.06733 37.137
v 0.559192 0.949558 -0.403163
vt -3.98304 37.3842
v 0.561933 0.954107 -0.404623
vt -4.10533 37.5633
v 0.555077 0.963513 -0.400971
vt -3.79951 37.9336
v 0.553297 0.967423 -0.400023
vt -3.72008 38.0875
f 355/392/25 356/393/25 357/394/25 358/395/25 359/396/25 178/215/25 177/214/25 176/213/25 175/212/25 174/211/25 173/210/25 310/347/25 309/346/25 308/345/25 307/344/25 306/343/25 305/342/25 304/341/25 303/340/25 349/386/25 354/391/25 360/397/25 361/398/25 362/399/25 363/400/25 364/401/25 365/402/25 366/403/25 367/404/25 368/405/25 369/406/25 370/407/25 371/408/25 372/409/25 373/410/25 374/411/25 375/412/25 376/413/25 377/414/25 378/415/25 379/416/25 380/417/25 381/418/25 382/419/25 383/420/25 384/421/25 385/422/25 386/423/25 387/424/25 388/425/25 389/426/25 390/427/25 391/428/25 392/429/25 393/430/25 394/431/25 395/432/25 396/433/25 397/434/25 398/435/25 399/436/25 400/437/25 401/438/25 402/439/25 403/440/25 404/441/25 405/442/25 406/443/25 407/444/25 408/445/25 409/446/25 410/447/25 411/448/25 412/449/25 413/450/25 414/451/25 415/452/25 416/453/25 417/454/25 418/455/25 419/456/25 420/457/25 421/458/25 422/459/25 423/460/25 424/461/25 425/462/25 426/463/25 

usemtl Steve_Jacket2
vn -0.47013 -6.26297e-016 -0.882597
v 0.578118 0.82698 -0.413244
vt -4.82727 32.5583
v 0.577488 0.814424 -0.412908
vt -4.79918 32.0639
v 0.580344 0.815078 -0.41443
vt -4.92658 32.0897
v 0.579 0.807861 -0.413714
vt -4.86665 31.8056
v 0.578855 0.801987 -0.413637
vt -4.86015 31.5743
v 0.578676 0.794761 -0.413541
vt -4.85217 31.2898
v 0.580586 0.782181 -0.414559
vt -4.93739 30.7945
v 0.58105 0.775518 -0.414806
vt -4.95806 30.5322
v 0.58105 0.762947 -0.414806
vt -4.95806 30.0373
v 0.581701 0.758878 -0.415153
vt -4.98711 29.8771
f 355/392/26 426/463/26 425/462/26 424/461/26 423/460/26 422/459/26 421/458/26 420/457/26 419/456/26 418/455/26 417/454/26 416/453/26 415/452/26 414/451/26 427/464/26 428/465/26 429/466/26 430/467/26 431/468/26 432/469/26 433/470/26 434/471/26 435/472/26 436/473/26 188/225/26 187/224/26 356/393/26 

usemtl Steve_Jacket
vn -0.47013 -5.83037e-016 -0.882597
v 0.632667 0.784112 -0.442301
vt -7.26058 30.8706
v 0.629796 0.795922 -0.440772
vt -7.13251 31.3355
v 0.625428 0.803653 -0.438445
vt -6.93767 31.6399
v 0.614948 0.810194 -0.432862
vt -6.47016 31.8974
v 0.598758 0.815119 -0.424238
vt -5.74798 32.0913
v 0.587264 0.816662 -0.418116
vt -5.23525 32.1521
f 429/466/27 428/465/27 427/464/27 414/451/27 413/450/27 412/449/27 411/448/27 410/447/27 409/446/27 437/474/27 438/475/27 439/476/27 440/477/27 441/478/27 442/479/27 

usemtl Steve_Skin
v 0.61544 0.751681 -0.433124
vt -6.49211 29.5937
vn -0.47013 1.35863e-015 -0.882597
v 0.596976 0.742892 -0.423289
vt -5.66847 29.2477
v 0.596203 0.741265 -0.422878
vt -5.63402 29.1837
v 0.592875 0.738189 -0.421105
vt -5.48557 29.0626
v 0.589341 0.737827 -0.419222
vt -5.32792 29.0483
v 0.587008 0.738341 -0.41798
vt -5.22387 29.0685
v 0.584676 0.738854 -0.416737
vt -5.1198 29.0887
v 0.582425 0.741765 -0.415538
vt -5.01942 29.2033
v 0.581879 0.746238 -0.415248
vt -4.99506 29.3794
v 0.581701 0.753581 -0.415153
vt -4.98711 29.6686
v 0.631182 0.771534 -0.44151
vt -7.19431 30.3753
v 0.629606 0.76599 -0.44067
vt -7.12402 30.1571
v 0.626233 0.761701 -0.438874
vt -6.97358 29.9882
v 0.623333 0.756647 -0.437329
vt -6.84421 29.7893
f 443/480/28 444/481/28 445/482/28 446/483/28 447/484/28 448/485/28 449/486/28 450/487/28 451/488/28 452/489/28 436/473/28 435/472/28 434/471/28 433/470/28 432/469/28 431/468/28 430/467/28 429/466/28 442/479/28 441/478/28 440/477/28 439/476/28 438/475/28 437/474/28 453/490/28 454/491/28 455/492/28 456/493/28 

v 0.576641 0.734732 -0.412457
vt -4.7614 28.9265
vn -0.47013 8.12344e-015 -0.882597
v 0.570849 0.739055 -0.409372
vt -4.50305 29.0967
v 0.580309 0.735152 -0.414411
vt -4.92502 28.943
f 457/494/29 458/495/29 188/225/29 436/473/29 452/489/29 451/488/29 450/487/29 449/486/29 448/485/29 459/496/29 

usemtl Steve_Book
v 0.493914 0.940511 -0.368391
vt -1.07118 37.028
vn -0.47013 1.31143e-015 -0.882597
v 0.49274 0.944218 -0.367766
vt -1.01881 37.174
f 460/497/30 461/498/30 357/394/30 356/393/30 187/224/30 186/223/30 185/222/30 

v 0.482867 0.93631 -0.362507
vt -0.578435 36.8626
vn -0.47013 4.43085e-014 -0.882597
v 0.476335 0.936977 -0.359028
vt -0.287067 36.8889
v 0.487617 0.937394 -0.365038
vt -0.790326 36.9053
f 462/499/31 463/500/31 461/498/31 460/497/31 464/501/31 

vn -0.47013 -7.22114e-015 -0.882597
f 184/221/32 183/220/32 182/219/32 181/218/32 463/500/32 462/499/32 464/501/32 460/497/32 185/222/32 

vn -0.47013 7.35551e-015 -0.882597
f 358/395/33 357/394/33 461/498/33 463/500/33 181/218/33 180/217/33 179/216/33 178/215/33 359/396/33 

usemtl Steve_Shirt
vn -0.47013 1.83336e-015 -0.882597
v 0.378474 1.39439 -0.3069
vt 4.07825 54.8972
v 0.388368 1.40364 -0.312171
vt 3.63691 55.2615
v 0.40725 1.40666 -0.322228
vt 2.79465 55.3801
v 0.411794 1.40435 -0.324649
vt 2.59194 55.2894
v 0.414918 1.399 -0.326313
vt 2.4526 55.0787
v 0.413243 1.39152 -0.325421
vt 2.5273 54.7842
v 0.406208 1.38314 -0.321673
vt 2.84111 54.4542
v 0.40068 1.37 -0.318729
vt 3.08768 53.9372
v 0.399167 1.36315 -0.317923
vt 3.15521 53.6673
v 0.39978 1.35278 -0.318249
vt 3.12785 53.2591
f 360/397/34 354/391/34 353/390/34 352/389/34 465/502/34 466/503/34 467/504/34 468/505/34 469/506/34 470/507/34 471/508/34 472/509/34 473/510/34 474/511/34 

usemtl Steve_Skin
vn -0.47013 -5.362e-016 -0.882597
f 351/388/35 465/502/35 352/389/35

f 465/502/35 351/388/35 350/387/35

f 465/502/35 350/387/35 344/381/35

f 465/502/35 344/381/35 348/385/35

f 465/502/35 348/385/35 466/503/35

f 466/503/35 348/385/35 347/384/35

v 0.414455 1.44338 -0.326066
vt 2.47325 56.8261
f 466/503/35 347/384/35 475/512/35

f 475/512/35 347/384/35 346/383/35

f 475/512/35 346/383/35 345/382/35

f 475/512/35 345/382/35 331/368/35

v 0.420919 1.46528 -0.329509
vt 2.1849 57.6883
f 475/512/35 331/368/35 476/513/35

f 476/513/35 331/368/35 330/367/35

f 476/513/35 330/367/35 329/366/35

f 476/513/35 329/366/35 328/365/35

v 0.296477 1.458 -0.263223
vt 7.73588 57.4014
f 476/513/35 328/365/35 477/514/35

v 0.29395 1.4628 -0.261877
vt 7.84863 57.5905
f 476/513/35 477/514/35 478/515/35

v 0.291923 1.46861 -0.260797
vt 7.93904 57.8191
f 476/513/35 478/515/35 479/516/35

v 0.424108 1.48081 -0.331208
vt 2.04265 58.2996
f 476/513/35 479/516/35 480/517/35

v 0.287287 1.47924 -0.258328
vt 8.14582 58.2378
f 480/517/35 479/516/35 481/518/35

v 0.285417 1.48852 -0.257332
vt 8.22926 58.6033
f 480/517/35 481/518/35 482/519/35

v 0.425924 1.48965 -0.332175
vt 1.96164 58.6477
f 480/517/35 482/519/35 483/520/35

v 0.2849 1.49743 -0.257057
vt 8.25232 58.9538
f 483/520/35 482/519/35 484/521/35

v 0.431378 1.50326 -0.335081
vt 1.71834 59.1833
f 483/520/35 484/521/35 485/522/35

v 0.334721 1.50058 -0.283594
vt 6.02996 59.0779
f 485/522/35 484/521/35 486/523/35

v 0.293794 1.50082 -0.261794
vt 7.85557 59.0873
f 484/521/35 487/524/35 486/523/35

v 0.283719 1.5085 -0.256427
vt 8.30499 59.3896
f 487/524/35 484/521/35 488/525/35

v 0.292846 1.50646 -0.261289
vt 7.89787 59.3095
f 487/524/35 488/525/35 489/526/35

v 0.293067 1.51045 -0.261407
vt 7.88802 59.4665
f 489/526/35 488/525/35 490/527/35

v 0.281973 1.52461 -0.255498
vt 8.38286 60.0241
f 490/527/35 488/525/35 491/528/35

v 0.29379 1.51413 -0.261792
vt 7.85578 59.6114
f 490/527/35 491/528/35 492/529/35

v 0.296071 1.5171 -0.263007
vt 7.754 59.7284
f 492/529/35 491/528/35 493/530/35

v 0.299071 1.5183 -0.264605
vt 7.62018 59.7755
f 493/530/35 491/528/35 494/531/35

v 0.302296 1.51859 -0.266323
vt 7.47633 59.787
f 494/531/35 491/528/35 495/532/35

v 0.447012 1.52463 -0.343408
vt 1.02098 60.0247
f 496/533/35 495/532/35 491/528/35

v 0.312361 1.51729 -0.271684
vt 7.02735 59.736
f 496/533/35 497/534/35 495/532/35

v 0.318132 1.51711 -0.274758
vt 6.76994 59.7286
f 496/533/35 498/535/35 497/534/35

v 0.322963 1.51636 -0.277331
vt 6.55444 59.6991
f 496/533/35 499/536/35 498/535/35

v 0.4433 1.51627 -0.341431
vt 1.18654 59.6958
f 500/537/35 499/536/35 496/533/35

v 0.328664 1.51259 -0.280368
vt 6.30013 59.5509
f 500/537/35 501/538/35 499/536/35

v 0.438748 1.5094 -0.339007
vt 1.38959 59.4254
f 502/539/35 501/538/35 500/537/35

v 0.332646 1.50853 -0.282489
vt 6.1225 59.3909
f 502/539/35 503/540/35 501/538/35

v 0.335469 1.50433 -0.283993
vt 5.99658 59.2257
f 502/539/35 504/541/35 503/540/35

f 485/522/35 504/541/35 502/539/35

v 0.336079 1.50226 -0.284318
vt 5.96936 59.144
f 485/522/35 505/542/35 504/541/35

f 485/522/35 486/523/35 505/542/35

usemtl Steve_Hair
vn -0.47013 1.39471e-014 -0.882597
v 0.326265 1.50228 -0.279091
vt 6.40712 59.145
v 0.310671 1.50603 -0.270784
vt 7.10275 59.2924
v 0.300759 1.50376 -0.265504
vt 7.54489 59.2033
f 504/541/36 505/542/36 486/523/36 506/543/36 507/544/36 508/545/36 487/524/36 489/526/36 490/527/36 492/529/36 493/530/36 494/531/36 495/532/36 497/534/36 498/535/36 499/536/36 501/538/36 503/540/36 

usemtl Steve_Skin
f 487/524/35 506/543/35 486/523/35

f 506/543/35 487/524/35 508/545/35

f 506/543/35 508/545/35 507/544/35

v 0.281491 1.53411 -0.255241
vt 8.40436 60.3982
f 496/533/35 491/528/35 509/546/35

v 0.405304 1.53073 -0.321192
vt 2.88144 60.2651
f 496/533/35 509/546/35 510/547/35

v 0.40179 1.53549 -0.31932
vt 3.03817 60.4525
f 510/547/35 509/546/35 511/548/35

v 0.340758 1.53597 -0.28681
vt 5.76066 60.4714
f 511/548/35 509/546/35 512/549/35

v 0.285291 1.53958 -0.257265
vt 8.23486 60.6132
f 512/549/35 509/546/35 513/550/35

v 0.281601 1.54032 -0.255299
vt 8.39948 60.6426
f 513/550/35 509/546/35 514/551/35

usemtl Steve_Glasses_Amber
v 0.29945 1.58068 -0.264807
vt 7.60328 62.2315
vn -0.47013 2.92027e-015 -0.882597
v 0.305327 1.57735 -0.267938
vt 7.34111 62.1005
v 0.307419 1.57401 -0.269052
vt 7.2478 61.9688
v 0.307533 1.5681 -0.269113
vt 7.24271 61.7362
v 0.304396 1.55923 -0.267441
vt 7.38266 61.387
v 0.301481 1.55272 -0.265889
vt 7.5127 61.1306
v 0.297887 1.54642 -0.263974
vt 7.67301 60.8828
v 0.294196 1.54275 -0.262008
vt 7.83764 60.7381
v 0.290197 1.54016 -0.259878
vt 8.01601 60.6362
v 0.281491 1.5488 -0.255241
vt 8.40436 60.9765
v 0.283083 1.55542 -0.256088
vt 8.33338 61.2368
v 0.285843 1.56177 -0.257559
vt 8.21025 61.487
v 0.28713 1.56864 -0.258244
vt 8.15284 61.7574
v 0.287649 1.57517 -0.258521
vt 8.12968 62.0147
v 0.288013 1.58249 -0.258715
vt 8.11347 62.3026
v 0.292918 1.58249 -0.261327
vt 7.89467 62.3026
v 0.296184 1.58158 -0.263067
vt 7.74897 62.2671
f 515/552/37 516/553/37 517/554/37 518/555/37 519/556/37 520/557/37 521/558/37 522/559/37 523/560/37 513/550/37 514/551/37 524/561/37 525/562/37 526/563/37 527/564/37 528/565/37 529/566/37 530/567/37 531/568/37 

usemtl Steve_Skin
v 0.311025 1.57592 -0.270972
vt 7.08696 62.044
vn -0.47013 -2.74772e-014 -0.882597
v 0.328722 1.58005 -0.280399
vt 6.29754 62.2067
v 0.324627 1.5791 -0.278218
vt 6.48021 62.1692
v 0.320431 1.57727 -0.275983
vt 6.66736 62.0974
v 0.318316 1.57414 -0.274856
vt 6.76171 61.974
v 0.314953 1.57592 -0.273065
vt 6.91175 62.044
f 532/569/38 517/554/38 516/553/38 515/552/38 531/568/38 533/570/38 534/571/38 535/572/38 536/573/38 537/574/38 

f 536/573/35 517/554/35 532/569/35

v 0.317619 1.57026 -0.274485
vt 6.79281 61.8212
f 538/575/35 517/554/35 536/573/35

f 538/575/35 518/555/35 517/554/35

v 0.318058 1.56425 -0.274719
vt 6.77325 61.5846
f 539/576/35 518/555/35 538/575/35

f 539/576/35 519/556/35 518/555/35

v 0.320442 1.55605 -0.275989
vt 6.66687 61.2617
f 540/577/35 519/556/35 539/576/35

f 540/577/35 520/557/35 519/556/35

v 0.324965 1.54803 -0.278398
vt 6.46512 60.9461
f 541/578/35 520/557/35 540/577/35

f 541/578/35 521/558/35 520/557/35

f 541/578/35 522/559/35 521/558/35

v 0.331962 1.54055 -0.282125
vt 6.15302 60.6516
f 542/579/35 522/559/35 541/578/35

f 542/579/35 523/560/35 522/559/35

f 542/579/35 513/550/35 523/560/35

v 0.336405 1.53725 -0.284491
vt 5.95483 60.5215
f 513/550/35 542/579/35 543/580/35

usemtl Steve_Glasses_Amber
v 0.358016 1.55809 -0.296003
vt 4.9908 61.3422
vn -0.47013 -3.59521e-015 -0.882597
v 0.35786 1.55619 -0.29592
vt 4.99777 61.2672
v 0.357687 1.55408 -0.295828
vt 5.00549 61.1842
v 0.356507 1.54687 -0.295199
vt 5.05813 60.9003
v 0.353908 1.54165 -0.293815
vt 5.17407 60.695
v 0.350421 1.53813 -0.291957
vt 5.32962 60.5562
v 0.345854 1.53617 -0.289525
vt 5.53335 60.4791
v 0.333097 1.58005 -0.28273
vt 6.10236 62.2067
v 0.337822 1.57918 -0.285246
vt 5.89161 62.1725
v 0.344492 1.57737 -0.2888
vt 5.59407 62.1012
v 0.350938 1.57408 -0.292233
vt 5.30653 61.9716
v 0.355168 1.5687 -0.294486
vt 5.11786 61.76
v 0.358182 1.56011 -0.296091
vt 4.98342 61.4217
f 544/581/39 545/582/39 546/583/39 547/584/39 548/585/39 549/586/39 550/587/39 512/549/39 543/580/39 542/579/39 541/578/39 540/577/39 539/576/39 538/575/39 536/573/39 535/572/39 534/571/39 533/570/39 551/588/39 552/589/39 553/590/39 554/591/39 555/592/39 556/593/39 

usemtl Steve_Skin
v 0.395134 1.55809 -0.315774
vt 3.3351 61.3422
f 557/594/35 545/582/35 544/581/35

f 557/594/35 546/583/35 545/582/35

f 557/594/35 547/584/35 546/583/35

f 557/594/35 548/585/35 547/584/35

f 557/594/35 549/586/35 548/585/35

v 0.39762 1.53761 -0.317099
vt 3.22422 60.5357
f 558/595/35 549/586/35 557/594/35

f 558/595/35 550/587/35 549/586/35

f 558/595/35 512/549/35 550/587/35

f 512/549/35 558/595/35 511/548/35

usemtl Steve_Hair
v 0.422201 1.55809 -0.330192
vt 2.12772 61.3422
vn -0.47013 -7.06514e-015 -0.882597
v 0.43003 1.55421 -0.334362
vt 1.77849 61.1895
v 0.424355 1.54998 -0.33134
vt 2.03161 61.023
v 0.419163 1.54368 -0.328574
vt 2.26325 60.775
v 0.413219 1.53587 -0.325408
vt 2.5284 60.4673
f 559/596/40 560/597/40 561/598/40 562/599/40 563/600/40 510/547/40 511/548/40 558/595/40 557/594/40 

v 0.404054 1.67543 -0.320526
vt 2.93719 65.962
vn -0.47013 3.60489e-015 -0.882597
v 0.419913 1.66542 -0.328974
vt 2.22976 65.5679
v 0.436826 1.64984 -0.337983
vt 1.47532 64.9545
v 0.448377 1.6349 -0.344135
vt 0.960077 64.3662
v 0.457609 1.61968 -0.349053
vt 0.548264 63.767
v 0.462902 1.60513 -0.351873
vt 0.312147 63.194
v 0.463935 1.59281 -0.352422
vt 0.266099 62.7092
v 0.462866 1.58001 -0.351853
vt 0.313786 62.2053
v 0.458722 1.55994 -0.349646
vt 0.498634 61.415
v 0.453114 1.54353 -0.346659
vt 0.748777 60.7687
v 0.450431 1.53761 -0.345229
vt 0.868474 60.5357
v 0.451067 1.54225 -0.345568
vt 0.840071 60.7186
v 0.451112 1.55131 -0.345592
vt 0.8381 61.0753
v 0.448079 1.55673 -0.343977
vt 0.973379 61.2884
v 0.44336 1.55821 -0.341463
vt 1.18388 61.3469
v 0.437317 1.55758 -0.338244
vt 1.45344 61.3221
v 0.394012 1.56734 -0.315177
vt 3.38516 61.7063
v 0.396477 1.58082 -0.31649
vt 3.2752 62.2371
v 0.390353 1.57689 -0.313228
vt 3.54837 62.0824
v 0.387397 1.59471 -0.311653
vt 3.68023 62.7838
v 0.390351 1.61535 -0.313227
vt 3.54845 63.5963
v 0.39252 1.62984 -0.314382
vt 3.45171 64.1669
v 0.383421 1.64078 -0.309535
vt 3.85758 64.5976
v 0.36563 1.64477 -0.300059
vt 4.65119 64.7548
v 0.352562 1.64727 -0.293098
vt 5.23412 64.853
v 0.361592 1.63684 -0.297908
vt 4.83133 64.4424
v 0.345685 1.64346 -0.289435
vt 5.54086 64.703
v 0.339514 1.6364 -0.286148
vt 5.81615 64.4254
v 0.336597 1.64091 -0.284594
vt 5.94627 64.6026
v 0.329323 1.63951 -0.28072
vt 6.27071 64.5478
v 0.329323 1.64851 -0.28072
vt 6.27071 64.9019
v 0.318508 1.64851 -0.274958
vt 6.75317 64.9019
v 0.307881 1.63766 -0.269298
vt 7.2272 64.4747
v 0.297403 1.6166 -0.263716
vt 7.6946 63.6457
v 0.291203 1.59648 -0.260414
vt 7.97113 62.8537
v 0.288013 1.60006 -0.258715
vt 8.11347 62.9944
v 0.293905 1.61835 -0.261853
vt 7.85061 63.7148
v 0.300756 1.63417 -0.265503
vt 7.54501 64.3373
v 0.31021 1.64636 -0.270539
vt 7.12329 64.8172
v 0.316701 1.65346 -0.273996
vt 6.83377 65.0968
v 0.311903 1.65865 -0.27144
vt 7.04779 65.3012
v 0.31048 1.66315 -0.270682
vt 7.11128 65.4783
v 0.312219 1.669 -0.271608
vt 7.03369 65.7086
v 0.320399 1.68055 -0.275966
vt 6.6688 66.1634
v 0.335366 1.68992 -0.283938
vt 6.00115 66.5325
v 0.35289 1.69433 -0.293273
vt 5.21947 66.7057
v 0.358623 1.69351 -0.296327
vt 4.96372 66.6735
v 0.351564 1.68921 -0.292566
vt 5.27861 66.5043
v 0.346871 1.68509 -0.290067
vt 5.48795 66.3421
v 0.354856 1.6855 -0.29432
vt 5.13178 66.3584
v 0.370799 1.68504 -0.302812
vt 4.42062 66.3402
v 0.387946 1.68172 -0.311946
vt 3.65573 66.2094
f 564/601/41 565/602/41 566/603/41 567/604/41 568/605/41 569/606/41 570/607/41 571/608/41 572/609/41 573/610/41 574/611/41 575/612/41 576/613/41 577/614/41 578/615/41 579/616/41 560/597/41 559/596/41 557/594/41 580/617/41 581/618/41 582/619/41 583/620/41 584/621/41 585/622/41 586/623/41 587/624/41 588/625/41 589/626/41 590/627/41 591/628/41 592/629/41 593/630/41 594/631/41 595/632/41 596/633/41 597/634/41 598/635/41 529/566/41 599/636/41 600/637/41 601/638/41 602/639/41 603/640/41 604/641/41 605/642/41 606/643/41 607/644/41 608/645/41 609/646/41 610/647/41 611/648/41 612/649/41 613/650/41 614/651/41 615/652/41 

usemtl Steve_Skin
f 574/611/35 562/599/35 575/612/35

f 574/611/35 563/600/35 562/599/35

v 0.449794 1.53296 -0.34489
vt 0.896882 60.3528
f 616/653/35 563/600/35 574/611/35

f 616/653/35 510/547/35 563/600/35

f 510/547/35 616/653/35 496/533/35

f 575/612/35 562/599/35 576/613/35

f 576/613/35 562/599/35 561/598/35

f 576/613/35 561/598/35 560/597/35

f 576/613/35 560/597/35 577/614/35

f 577/614/35 560/597/35 579/616/35

f 577/614/35 579/616/35 578/615/35

vn -0.47013 -1.9195e-015 -0.882597
f 530/567/42 529/566/42 598/635/42 597/634/42 596/633/42 595/632/42 594/631/42 593/630/42 592/629/42 591/628/42 590/627/42 589/626/42 588/625/42 587/624/42 586/623/42 585/622/42 584/621/42 583/620/42 582/619/42 581/618/42 580/617/42 557/594/42 544/581/42 556/593/42 555/592/42 554/591/42 553/590/42 552/589/42 551/588/42 533/570/42 531/568/42 

f 512/549/35 513/550/35 543/580/35

f 536/573/35 532/569/35 537/574/35

usemtl Steve_Glasses_Amber
vn -0.47013 -1.10553e-015 -0.882597
v 0.278942 1.54232 -0.253883
vt 8.51807 60.7213
v 0.27589 1.54631 -0.252257
vt 8.65421 60.8782
v 0.273375 1.55259 -0.250917
vt 8.76642 61.1255
v 0.272029 1.55892 -0.2502
vt 8.82646 61.3747
v 0.271761 1.56666 -0.250058
vt 8.83842 61.6795
v 0.272485 1.57187 -0.250443
vt 8.80612 61.8848
v 0.273979 1.57655 -0.25124
vt 8.73945 62.069
v 0.276472 1.57969 -0.252567
vt 8.62825 62.1924
v 0.280699 1.58171 -0.254819
vt 8.43969 62.2721
v 0.28621 1.58249 -0.257754
vt 8.19389 62.3026
f 514/551/43 617/654/43 618/655/43 619/656/43 620/657/43 621/658/43 622/659/43 623/660/43 624/661/43 625/662/43 626/663/43 529/566/43 528/565/43 527/564/43 526/563/43 525/562/43 524/561/43 

usemtl Steve_Jacket2
vn -0.47013 1.15026e-015 -0.882597
v 0.416623 1.37574 -0.327221
vt 2.37654 54.1631
v 0.422858 1.40276 -0.330542
vt 2.09841 55.2269
v 0.427015 1.43436 -0.332757
vt 1.91295 56.4707
v 0.447009 1.45465 -0.343407
vt 1.0211 57.2696
v 0.459929 1.4447 -0.350289
vt 0.444763 56.8778
v 0.468035 1.43378 -0.354607
vt 0.0831841 56.4481
v 0.462494 1.36907 -0.351655
vt 0.330364 53.9003
v 0.452586 1.36875 -0.346378
vt 0.772311 53.8878
v 0.448316 1.36679 -0.344103
vt 0.962818 53.8106
v 0.445909 1.36025 -0.342821
vt 1.07019 53.553
v 0.445061 1.34873 -0.342369
vt 1.10799 53.0995
f 364/401/44 363/400/44 362/399/44 361/398/44 360/397/44 474/511/44 627/664/44 628/665/44 629/666/44 476/513/44 480/517/44 630/667/44 631/668/44 632/669/44 375/412/44 374/411/44 373/410/44 372/409/44 371/408/44 633/670/44 634/671/44 635/672/44 636/673/44 637/674/44 367/404/44 366/403/44 365/402/44 

usemtl Steve_Shirt
vn -0.47013 -6.74224e-015 -0.882597
f 475/512/45 476/513/45 629/666/45 628/665/45 627/664/45 474/511/45 473/510/45 472/509/45 471/508/45 470/507/45 469/506/45 468/505/45 467/504/45 466/503/45 

usemtl Steve_Jacket
vn -0.47013 -8.66843e-015 -0.882597
f 367/404/46 637/674/46 636/673/46 635/672/46 634/671/46 633/670/46 371/408/46 370/407/46 369/406/46 368/405/46 

